<?xml version="1.0" encoding="utf-8"?>
<!-- Generator: Adobe Illustrator 21.1.0, SVG Export Plug-In . SVG Version: 6.00 Build 0)  -->
<svg version="1.1" id="Layer_1" xmlns="http://www.w3.org/2000/svg" xmlns:xlink="http://www.w3.org/1999/xlink" x="0px" y="0px"
	 viewBox="0 0 661.9 662" style="enable-background:new 0 0 661.9 662;" xml:space="preserve">
<style type="text/css">
	.st0{display:none;}
</style>
<g>
	<path class="st0" d="M431.3,357.4c-9.9,35-37.4,62.5-72.4,72.4v232C520.5,648.4,649.2,519.2,662,357.4H431.3z"/>
	<path d="M229.2,357.4H0C12.8,519.7,142.3,649.2,304.6,662V430.7C268.2,421.5,239.4,393.4,229.2,357.4z"/>
	<path d="M304.6,226.9V0C142.8,12.8,13.6,141.5,0.1,303.1h228.3C237.8,265.7,267.2,236.3,304.6,226.9z"/>
	<path d="M432.1,303.1h229.7C648.5,142,520,13.5,358.9,0.1v227.6C394.9,237.9,423,266.7,432.1,303.1z"/>
</g>
<rect x="425" y="360.4" transform="matrix(0.7071 -0.7071 0.7071 0.7071 -201.4142 494.5681)" width="142.5" height="260.1"/>
</svg>
